<svg id="visual" viewBox="0 0 900 600" width="900" height="600" xmlns="http://www.w3.org/2000/svg" xmlns:xlink="http://www.w3.org/1999/xlink" version="1.1"><rect x="0" y="0" width="900" height="600" fill="#001220"></rect><path d="M0 412L21.5 414.7C43 417.3 86 422.7 128.8 420.3C171.7 418 214.3 408 257.2 407.2C300 406.3 343 414.7 385.8 421.5C428.7 428.3 471.3 433.7 514.2 428.3C557 423 600 407 642.8 397.5C685.7 388 728.3 385 771.2 378.3C814 371.7 857 361.3 878.5 356.2L900 351L900 601L878.5 601C857 601 814 601 771.2 601C728.3 601 685.7 601 642.8 601C600 601 557 601 514.2 601C471.3 601 428.7 601 385.8 601C343 601 300 601 257.2 601C214.3 601 171.7 601 128.8 601C86 601 43 601 21.5 601L0 601Z" fill="#fa7268"></path><path d="M0 414L21.5 410.7C43 407.3 86 400.7 128.8 406.3C171.7 412 214.3 430 257.2 443.8C300 457.7 343 467.3 385.8 460C428.7 452.7 471.3 428.3 514.2 428C557 427.7 600 451.3 642.8 455C685.7 458.7 728.3 442.3 771.2 438.5C814 434.7 857 443.3 878.5 447.7L900 452L900 601L878.5 601C857 601 814 601 771.2 601C728.3 601 685.7 601 642.8 601C600 601 557 601 514.2 601C471.3 601 428.7 601 385.8 601C343 601 300 601 257.2 601C214.3 601 171.7 601 128.8 601C86 601 43 601 21.5 601L0 601Z" fill="#ef5f67"></path><path d="M0 473L21.5 476C43 479 86 485 128.8 485.3C171.7 485.7 214.3 480.3 257.2 480.5C300 480.7 343 486.3 385.8 490.5C428.7 494.7 471.3 497.3 514.2 489C557 480.7 600 461.3 642.8 451.2C685.7 441 728.3 440 771.2 444.3C814 448.7 857 458.3 878.5 463.2L900 468L900 601L878.5 601C857 601 814 601 771.2 601C728.3 601 685.7 601 642.8 601C600 601 557 601 514.2 601C471.3 601 428.7 601 385.8 601C343 601 300 601 257.2 601C214.3 601 171.7 601 128.8 601C86 601 43 601 21.5 601L0 601Z" fill="#e34c67"></path><path d="M0 488L21.5 491.2C43 494.3 86 500.7 128.8 500.7C171.7 500.7 214.3 494.3 257.2 491.3C300 488.3 343 488.7 385.8 488.5C428.7 488.3 471.3 487.7 514.2 488.2C557 488.7 600 490.3 642.8 495.2C685.7 500 728.3 508 771.2 509.2C814 510.3 857 504.7 878.5 501.8L900 499L900 601L878.5 601C857 601 814 601 771.2 601C728.3 601 685.7 601 642.8 601C600 601 557 601 514.2 601C471.3 601 428.7 601 385.8 601C343 601 300 601 257.2 601C214.3 601 171.7 601 128.8 601C86 601 43 601 21.5 601L0 601Z" fill="#d53867"></path><path d="M0 542L21.5 539.2C43 536.3 86 530.7 128.8 533.5C171.7 536.3 214.3 547.7 257.2 552C300 556.3 343 553.7 385.8 549.5C428.7 545.3 471.3 539.7 514.2 542.3C557 545 600 556 642.8 557.3C685.7 558.7 728.3 550.3 771.2 550C814 549.7 857 557.3 878.5 561.2L900 565L900 601L878.5 601C857 601 814 601 771.2 601C728.3 601 685.7 601 642.8 601C600 601 557 601 514.2 601C471.3 601 428.7 601 385.8 601C343 601 300 601 257.2 601C214.3 601 171.7 601 128.8 601C86 601 43 601 21.5 601L0 601Z" fill="#c62368"></path></svg>