<?xml version="1.0" encoding="UTF-8" standalone="no"?>
<!-- Created with Inkscape (http://www.inkscape.org/) -->
<svg xmlns:dc="http://purl.org/dc/elements/1.1/" xmlns:cc="http://creativecommons.org/ns#" xmlns:rdf="http://www.w3.org/1999/02/22-rdf-syntax-ns#" xmlns:svg="http://www.w3.org/2000/svg" xmlns="http://www.w3.org/2000/svg" version="1.0" width="416.00116" height="151.323" viewBox="0 0 332.80093 121.0584" id="svg2">
  <defs id="defs32"/>
  <metadata id="metadata4">
<rdf:RDF>
  <cc:Work rdf:about="">
    <dc:format>image/svg+xml</dc:format>
    <dc:type rdf:resource="http://purl.org/dc/dcmitype/StillImage"/>
    <dc:title/>
  </cc:Work>
</rdf:RDF>
</metadata>
  <g transform="matrix(0.02467049,0,0,-0.02467049,1.4905716,120.46736)" id="g6" style="fill:#000000;stroke:none">
    <path d="m 4435,4633 c -38,-14 -118,-35 -177,-47 -59,-12 -110,-25 -113,-28 -3,-3 6,-29 20,-59 14,-30 25,-61 25,-71 0,-17 -19,-60 -172,-383 -50,-104 -103,-217 -118,-250 -15,-33 -48,-103 -73,-155 -25,-52 -104,-219 -176,-370 -171,-361 -203,-398 -371,-436 -68,-16 -70,-17 -70,-48 l 0,-31 395,0 396,0 -3,34 c -3,33 -5,35 -62,48 -69,16 -152,55 -179,86 -31,36 -38,65 -26,110 10,37 159,423 190,491 l 12,26 307,0 307,0 48,-127 c 27,-71 70,-180 97,-243 54,-125 68,-201 48,-249 -17,-42 -99,-81 -198,-93 -104,-14 -102,-13 -102,-50 l 0,-33 545,0 546,0 -3,35 -3,35 -63,7 c -82,9 -181,55 -218,101 -15,20 -69,138 -120,264 -50,125 -150,372 -221,548 -72,176 -154,379 -183,450 -29,72 -74,182 -100,245 -26,63 -56,138 -67,165 -11,28 -26,51 -34,51 -8,1 -45,-10 -84,-23 z m -100,-533 c 43,-113 97,-254 121,-313 24,-59 44,-110 44,-112 0,-3 -117,-5 -261,-5 -205,0 -260,3 -256,13 2,6 25,62 50,122 131,315 195,472 202,494 4,12 10,19 15,15 4,-5 42,-101 85,-214 z" id="path8"/>
    <path d="m 422,4580 3,-35 63,-7 c 152,-17 229,-61 253,-145 20,-67 21,-1366 1,-1430 -27,-88 -81,-118 -236,-131 l -81,-7 -3,-35 -3,-35 551,0 551,0 -3,35 -3,35 -81,7 c -152,12 -209,43 -235,126 -8,24 -13,161 -16,390 l -5,352 517,0 517,0 -5,-352 c -3,-229 -8,-366 -16,-390 -26,-83 -83,-114 -235,-126 l -81,-7 -3,-35 -3,-35 551,0 551,0 -3,35 -3,35 -81,7 c -155,13 -209,43 -236,131 -20,64 -19,1363 1,1430 24,84 101,128 253,145 l 63,7 3,35 3,35 -551,0 -551,0 3,-35 3,-35 63,-7 c 144,-16 225,-60 251,-135 9,-26 15,-122 18,-305 l 5,-268 -517,0 -517,0 5,268 c 3,183 9,279 18,305 26,75 107,119 251,135 l 63,7 3,35 3,35 -551,0 -551,0 3,-35 z" id="path10"/>
    <path d="m 6535,4609 c -110,-5 -321,-6 -468,-2 l -269,6 4,-29 c 3,-27 6,-29 83,-42 164,-27 227,-79 246,-205 15,-96 7,-1330 -9,-1379 -28,-84 -84,-114 -236,-126 l -81,-7 -3,-35 -3,-35 551,0 551,0 -3,35 -3,35 -81,7 c -152,12 -209,43 -235,126 -7,23 -13,155 -16,351 l -5,314 27,-7 c 14,-4 61,-14 103,-22 42,-9 82,-21 89,-26 6,-5 47,-62 89,-126 68,-102 188,-267 204,-282 3,-3 33,-39 67,-80 33,-41 114,-131 180,-200 l 119,-124 342,-1 342,-1 0,26 c 0,23 -6,28 -52,39 -230,57 -484,283 -783,699 -36,52 -65,95 -63,96 2,2 26,9 53,16 78,20 185,69 240,110 107,79 165,197 165,335 -1,271 -224,485 -557,534 -79,12 -283,12 -588,0 z m 390,-113 c 122,-32 213,-106 263,-214 24,-52 27,-68 27,-177 0,-133 -13,-177 -76,-256 -36,-46 -137,-105 -217,-126 -80,-22 -222,-21 -300,2 l -62,18 2,371 3,371 50,11 c 70,17 250,17 310,0 z" id="path12"/>
    <path d="m 9045,4609 c -110,-5 -321,-6 -468,-2 l -269,6 4,-29 c 3,-27 6,-29 83,-42 164,-27 227,-79 246,-205 15,-96 7,-1330 -9,-1379 -28,-84 -84,-114 -236,-126 l -81,-7 -3,-35 -3,-35 551,0 551,0 -3,35 -3,35 -81,7 c -152,12 -209,43 -235,126 -7,23 -13,155 -16,351 l -5,314 27,-7 c 14,-4 61,-14 103,-22 42,-9 82,-21 89,-26 6,-5 47,-62 89,-126 68,-102 188,-267 204,-282 3,-3 33,-39 67,-80 33,-41 114,-131 180,-200 l 119,-124 342,-1 342,-1 0,26 c 0,23 -6,28 -52,39 -230,57 -484,283 -783,699 -36,52 -65,95 -63,96 2,2 26,9 53,16 78,20 185,69 240,110 107,79 165,197 165,335 -1,271 -224,485 -557,534 -79,12 -283,12 -588,0 z m 390,-113 c 122,-32 213,-106 263,-214 24,-52 27,-68 27,-177 0,-133 -13,-177 -76,-256 -36,-46 -137,-105 -217,-126 -80,-22 -222,-21 -300,2 l -62,18 2,371 3,371 50,11 c 70,17 250,17 310,0 z" id="path14"/>
    <path d="m 10512,4585 c 3,-25 8,-30 38,-36 120,-24 146,-32 193,-63 49,-32 127,-103 172,-157 11,-13 76,-91 145,-173 69,-81 143,-170 165,-196 147,-176 217,-261 268,-324 l 57,-70 0,-292 c 0,-191 -4,-303 -11,-325 -26,-76 -84,-107 -225,-117 l -89,-7 -3,-35 -3,-35 541,0 541,0 -3,35 -3,35 -89,7 c -141,10 -199,41 -225,117 -7,22 -11,136 -11,332 l 0,297 152,209 c 491,675 519,704 698,748 81,21 85,23 88,51 l 3,29 -421,0 -421,0 3,-29 c 3,-28 7,-31 77,-48 111,-27 148,-58 158,-136 9,-67 -58,-209 -235,-492 -94,-151 -150,-231 -159,-229 -4,2 -26,28 -48,58 -22,31 -45,63 -52,71 -32,39 -194,238 -284,348 -178,219 -199,264 -148,318 35,38 55,46 149,64 83,15 85,16 88,45 l 3,30 -556,0 -556,0 3,-30 z" id="path16"/>
    <path d="m 3185,2153 c -310,-39 -577,-180 -725,-384 -65,-89 -116,-199 -147,-316 -22,-84 -26,-120 -27,-258 -1,-164 7,-222 46,-345 60,-187 180,-348 343,-456 360,-241 953,-256 1344,-33 319,183 480,519 442,925 -29,306 -160,536 -391,689 -194,128 -416,186 -699,184 -86,-1 -169,-4 -186,-6 z m 319,-108 c 138,-24 280,-112 365,-225 172,-229 228,-617 140,-970 -64,-257 -225,-447 -434,-513 -59,-18 -93,-22 -210,-22 -135,1 -143,2 -223,34 -287,114 -442,408 -442,841 0,371 129,656 359,787 131,76 277,98 445,68 z" id="path18"/>
    <path d="m 925,2117 c -38,-5 -218,-9 -398,-9 l -328,1 3,-27 c 3,-25 8,-27 83,-40 164,-27 227,-79 246,-206 C 546,1739 537,508 521,454 496,371 454,343 325,320 237,304 235,304 232,275 l -3,-30 506,0 506,0 -3,30 c -3,29 -4,30 -98,45 -119,19 -157,40 -190,105 -25,50 -25,51 -28,378 l -4,329 24,-8 c 137,-43 315,-62 440,-45 186,24 322,89 412,194 76,91 106,172 106,293 0,159 -44,270 -149,374 -95,95 -211,150 -375,179 -72,13 -355,12 -451,-2 z m 375,-113 c 139,-54 214,-195 213,-404 0,-183 -78,-327 -210,-387 -83,-38 -221,-43 -313,-11 l -65,23 0,380 0,380 39,13 c 108,35 256,38 336,6 z" id="path20"/>
    <path d="m 4850,2040 c 0,-74 -13,-298 -26,-437 l -6,-73 36,0 c 31,0 36,4 42,28 30,135 80,239 148,307 83,83 164,111 344,122 l 112,6 0,-754 c -1,-796 -1,-801 -47,-851 -30,-34 -74,-51 -168,-68 -88,-16 -90,-16 -93,-46 l -3,-29 506,0 506,0 -3,29 c -3,30 -5,30 -93,46 -94,17 -138,34 -168,68 -46,50 -46,55 -47,851 l 0,754 113,-6 c 179,-11 260,-39 343,-122 68,-68 118,-172 148,-307 6,-24 11,-28 42,-28 l 36,0 -6,73 c -13,139 -26,363 -26,437 l 0,75 -845,0 -845,0 0,-75 z" id="path22"/>
    <path d="m 6880,2040 c 0,-74 -13,-298 -26,-437 l -6,-73 36,0 c 31,0 36,4 42,28 30,135 80,239 148,307 83,83 164,111 344,122 l 112,6 0,-754 c -1,-796 -1,-801 -47,-851 -30,-34 -74,-51 -168,-68 -88,-16 -90,-16 -93,-46 l -3,-29 506,0 506,0 -3,29 c -3,30 -5,30 -93,46 -94,17 -138,34 -168,68 -46,50 -46,55 -47,851 l 0,754 113,-6 c 179,-11 260,-39 343,-122 68,-68 118,-172 148,-307 6,-24 11,-28 42,-28 l 36,0 -6,73 c -13,139 -26,363 -26,437 l 0,75 -845,0 -845,0 0,-75 z" id="path24"/>
    <path d="m 8880,2083 c 0,-39 1,-40 80,-52 92,-15 150,-47 178,-98 38,-70 44,-178 40,-826 l -3,-602 -24,-53 c -35,-76 -88,-108 -206,-121 l -60,-6 -3,-40 -3,-40 855,0 855,0 36,110 c 19,61 65,178 101,260 36,83 75,172 87,199 l 21,49 -23,18 c -13,11 -27,19 -31,19 -4,0 -24,-27 -44,-60 -150,-242 -365,-398 -631,-456 -110,-23 -351,-23 -464,1 l -81,18 0,420 0,420 138,-6 c 151,-7 210,-23 289,-80 57,-41 116,-130 145,-218 20,-62 25,-69 48,-69 l 25,0 0,415 0,415 -25,0 c -23,0 -28,-7 -48,-69 -29,-88 -88,-177 -145,-218 -79,-57 -138,-73 -289,-80 l -138,-6 0,342 0,341 175,0 c 97,0 218,-5 270,-11 243,-27 386,-128 483,-341 33,-72 38,-78 65,-78 l 30,0 -6,122 c -4,66 -7,187 -7,268 l 0,147 -845,-1 -845,-1 0,-32 z" id="path26"/>
    <path d="m 11730,2110 c -96,-5 -284,-6 -417,-3 l -243,6 0,-31 c 0,-30 1,-30 73,-42 129,-22 182,-56 214,-139 17,-42 18,-99 18,-721 0,-514 -3,-685 -13,-716 -24,-82 -84,-117 -222,-132 l -65,-7 -3,-35 -3,-35 501,0 501,0 -3,35 -3,35 -65,7 c -135,15 -197,50 -221,126 -7,23 -13,159 -16,351 -5,304 -5,314 13,306 11,-4 56,-14 101,-23 l 82,-16 42,-75 c 67,-117 164,-264 262,-395 91,-120 249,-309 281,-336 15,-12 72,-14 322,-15 l 304,-2 0,27 c 0,23 -7,28 -68,48 -142,46 -337,211 -496,420 -77,103 -251,362 -244,366 1,1 30,10 63,20 98,30 205,95 252,154 73,90 113,227 99,336 -17,129 -83,256 -174,337 -60,52 -171,110 -257,134 -73,20 -351,27 -615,15 z m 411,-132 c 147,-68 229,-223 216,-408 -14,-200 -137,-332 -335,-360 -79,-11 -128,-7 -210,17 l -52,16 2,371 3,371 45,12 c 26,7 93,11 160,10 100,-2 122,-6 171,-29 z" id="path28"/>
  </g>
</svg>