<svg id="visual" viewBox="0 0 900 675" width="900" height="675" xmlns="http://www.w3.org/2000/svg" xmlns:xlink="http://www.w3.org/1999/xlink" version="1.1"><rect x="0" y="0" width="900" height="675" fill="#001220"></rect><path d="M0 463L21.5 466C43 469 86 475 128.8 472.5C171.7 470 214.3 459 257.2 458.2C300 457.3 343 466.7 385.8 474.3C428.7 482 471.3 488 514.2 482C557 476 600 458 642.8 447.3C685.7 436.7 728.3 433.3 771.2 425.8C814 418.3 857 406.7 878.5 400.8L900 395L900 676L878.5 676C857 676 814 676 771.2 676C728.3 676 685.7 676 642.8 676C600 676 557 676 514.2 676C471.3 676 428.7 676 385.8 676C343 676 300 676 257.2 676C214.3 676 171.7 676 128.8 676C86 676 43 676 21.5 676L0 676Z" fill="#fa7268"></path><path d="M0 466L21.5 462.2C43 458.3 86 450.7 128.8 457C171.7 463.3 214.3 483.7 257.2 499.3C300 515 343 526 385.8 517.8C428.7 509.7 471.3 482.3 514.2 482C557 481.7 600 508.3 642.8 512.5C685.7 516.7 728.3 498.3 771.2 494C814 489.7 857 499.3 878.5 504.2L900 509L900 676L878.5 676C857 676 814 676 771.2 676C728.3 676 685.7 676 642.8 676C600 676 557 676 514.2 676C471.3 676 428.7 676 385.8 676C343 676 300 676 257.2 676C214.3 676 171.7 676 128.8 676C86 676 43 676 21.5 676L0 676Z" fill="#ef5f67"></path><path d="M0 532L21.5 535.5C43 539 86 546 128.8 546.5C171.7 547 214.3 541 257.2 541.2C300 541.3 343 547.7 385.8 552.3C428.7 557 471.3 560 514.2 550.7C557 541.3 600 519.7 642.8 508.2C685.7 496.7 728.3 495.3 771.2 500.2C814 505 857 516 878.5 521.5L900 527L900 676L878.5 676C857 676 814 676 771.2 676C728.3 676 685.7 676 642.8 676C600 676 557 676 514.2 676C471.3 676 428.7 676 385.8 676C343 676 300 676 257.2 676C214.3 676 171.7 676 128.8 676C86 676 43 676 21.5 676L0 676Z" fill="#e34c67"></path><path d="M0 550L21.5 553.3C43 556.7 86 563.3 128.8 563.2C171.7 563 214.3 556 257.2 552.7C300 549.3 343 549.7 385.8 549.5C428.7 549.3 471.3 548.7 514.2 549.3C557 550 600 552 642.8 557.5C685.7 563 728.3 572 771.2 573.3C814 574.7 857 568.3 878.5 565.2L900 562L900 676L878.5 676C857 676 814 676 771.2 676C728.3 676 685.7 676 642.8 676C600 676 557 676 514.2 676C471.3 676 428.7 676 385.8 676C343 676 300 676 257.2 676C214.3 676 171.7 676 128.8 676C86 676 43 676 21.5 676L0 676Z" fill="#d53867"></path><path d="M0 610L21.5 606.8C43 603.7 86 597.3 128.8 600.5C171.7 603.7 214.3 616.3 257.2 621.2C300 626 343 623 385.8 618.3C428.7 613.7 471.3 607.3 514.2 610.3C557 613.3 600 625.7 642.8 627.2C685.7 628.7 728.3 619.3 771.2 619C814 618.7 857 627.3 878.5 631.7L900 636L900 676L878.5 676C857 676 814 676 771.2 676C728.3 676 685.7 676 642.8 676C600 676 557 676 514.2 676C471.3 676 428.7 676 385.8 676C343 676 300 676 257.2 676C214.3 676 171.7 676 128.8 676C86 676 43 676 21.5 676L0 676Z" fill="#c62368"></path></svg>